<svg width="60" height="60" viewBox="0 0 60 60" fill="none" xmlns="http://www.w3.org/2000/svg">
<path d="M56.7568 0C57.6169 0 58.4419 0.301019 59.0501 0.836838C59.6583 1.37266 60 2.09938 60 2.85714V17.1429C60 17.9006 59.6583 18.6273 59.0501 19.1632C58.4419 19.699 57.6169 20 56.7568 20H40.5405V57.1429C40.5405 57.9006 40.1988 58.6273 39.5906 59.1632C38.9824 59.699 38.1575 60 37.2973 60H24.3243C23.4642 60 22.6392 59.699 22.031 59.1632C21.4228 58.6273 21.0811 57.9006 21.0811 57.1429V20H3.24324C2.38308 20 1.55815 19.699 0.949924 19.1632C0.341698 18.6273 0 17.9006 0 17.1429V10.3371C0.000321563 9.80668 0.16827 9.28677 0.485035 8.83564C0.8018 8.38451 1.25487 8.01997 1.79351 7.78286L19.4595 0H56.7568ZM40.5405 5.71429H20.9903L6.48649 12.1029V14.2857H27.5676V54.2857H34.0541V14.2857H40.5405V5.71429ZM53.5135 5.71429H47.027V14.2857H53.5135V5.71429Z" fill="#2C5A1E"/>
</svg>
