<svg width="60" height="60" viewBox="0 0 60 60" fill="none" xmlns="http://www.w3.org/2000/svg">
<path d="M50.5151 0C51.3031 0 52.0589 0.351189 52.6162 0.976311C53.1735 1.60143 53.4865 2.44928 53.4865 3.33333V9.19L47.5436 15.8567V6.66667H5.94295V33.6667L17.8288 20.3333L30.6894 34.7633L26.7462 39.1867L26.7284 53.3167L39.3453 53.3367L43.2973 48.9033L47.2435 53.3333H47.5436V44.14L53.4865 37.4733V56.6667C53.4865 57.5507 53.1735 58.3986 52.6162 59.0237C52.0589 59.6488 51.3031 60 50.5151 60H2.97147C2.18339 60 1.42758 59.6488 0.870324 59.0237C0.313065 58.3986 0 57.5507 0 56.6667V3.33333C0 2.44928 0.313065 1.60143 0.870324 0.976311C1.42758 0.351189 2.18339 0 2.97147 0H50.5151ZM55.7983 16.0267L60 20.74L36.8879 46.6667L32.6803 46.66L32.6862 41.9533L55.7983 16.0267ZM37.1434 13.3333C37.7289 13.3336 38.3087 13.4631 38.8496 13.7147C39.3905 13.9663 39.8819 14.3349 40.2958 14.7995C40.7097 15.2641 41.0379 15.8156 41.2618 16.4225C41.4857 17.0294 41.6008 17.6798 41.6006 18.3367C41.6004 18.9935 41.4849 19.6438 41.2607 20.2506C41.0364 20.8573 40.7078 21.4086 40.2937 21.8729C39.8795 22.3372 39.3879 22.7054 38.8468 22.9566C38.3058 23.2077 37.726 23.3369 37.1405 23.3367C35.9579 23.3362 34.824 22.8088 33.9881 21.8705C33.1522 20.9322 32.6828 19.6599 32.6832 18.3333C32.6836 17.0068 33.1538 15.7348 33.9902 14.7971C34.8267 13.8594 35.9609 13.3329 37.1434 13.3333Z" fill="#2C5A1E"/>
</svg>
