<svg width="60" height="60" viewBox="0 0 60 60" fill="none" xmlns="http://www.w3.org/2000/svg">
<path d="M6.31579 6.31579V15.7895H50.5263V6.31579H6.31579ZM3.15789 0H53.6842C54.5217 0 55.325 0.332706 55.9172 0.924926C56.5094 1.51715 56.8421 2.32037 56.8421 3.15789V18.9474C56.8421 19.7849 56.5094 20.5881 55.9172 21.1803C55.325 21.7726 54.5217 22.1053 53.6842 22.1053H3.15789C2.32037 22.1053 1.51715 21.7726 0.924926 21.1803C0.332706 20.5881 0 19.7849 0 18.9474V3.15789C0 2.32037 0.332706 1.51715 0.924926 0.924926C1.51715 0.332706 2.32037 0 3.15789 0V0ZM9.47368 28.4211H28.4211C29.2586 28.4211 30.0618 28.7538 30.654 29.346C31.2462 29.9382 31.5789 30.7414 31.5789 31.5789V41.0526H34.7368V60H22.1053V41.0526H25.2632V34.7368H6.31579C5.47826 34.7368 4.67504 34.4041 4.08282 33.8119C3.4906 33.2197 3.15789 32.4165 3.15789 31.5789V25.2632H9.47368V28.4211ZM46.5221 33.8905L52.1053 28.3074L57.6884 33.8905C58.7923 34.9947 59.544 36.4014 59.8485 37.9328C60.1529 39.4642 59.9964 41.0514 59.3989 42.4939C58.8013 43.9363 57.7894 45.1692 56.4911 46.0366C55.1929 46.904 53.6666 47.367 52.1053 47.367C50.5439 47.367 49.0176 46.904 47.7194 46.0366C46.4212 45.1692 45.4093 43.9363 44.8117 42.4939C44.2141 41.0514 44.0576 39.4642 44.3621 37.9328C44.6665 36.4014 45.4182 34.9947 46.5221 33.8905V33.8905Z" fill="#2C5A1E"/>
</svg>
