<svg width="60" height="60" viewBox="0 0 60 60" fill="none" xmlns="http://www.w3.org/2000/svg">
<path d="M57 36V39C57 44.73 53.79 49.71 49.05 52.23L51 60H45L43.5 54H16.5L15 60H9L10.95 52.23C8.54756 50.9556 6.53792 49.0504 5.13718 46.7194C3.73643 44.3883 2.99756 41.7195 3 39V36H0V30H54V9C54 8.20435 53.6839 7.44129 53.1213 6.87868C52.5587 6.31607 51.7956 6 51 6C49.5 6 48.36 7.02 48 8.37C49.89 9.99 51 12.39 51 15H33C33 12.6131 33.9482 10.3239 35.636 8.63604C37.3239 6.94821 39.6131 6 42 6H42.51C43.74 2.52 47.07 0 51 0C53.3869 0 55.6761 0.948212 57.364 2.63604C59.0518 4.32387 60 6.61305 60 9V36H57ZM51 36H9V39C9 41.3869 9.94821 43.6761 11.636 45.364C13.3239 47.0518 15.6131 48 18 48H42C44.3869 48 46.6761 47.0518 48.364 45.364C50.0518 43.6761 51 41.3869 51 39V36Z" fill="#2C5A1E"/>
</svg>
